HIERARCHY
ROOT hip
{
  OFFSET 0 0 0
  CHANNELS 6 Xposition Yposition Zposition Zrotation Yrotation Xrotation
  JOINT abdomen
  {
    OFFSET 0 20.6881 -0.73152
    CHANNELS 3 Zrotation Xrotation Yrotation
    JOINT chest
    {
      OFFSET 0 11.7043 -0.48768
      CHANNELS 3 Zrotation Xrotation Yrotation
      JOINT neck
      {
        OFFSET 0 22.1894 -2.19456
        CHANNELS 3 Zrotation Xrotation Yrotation
        JOINT head
        {
          OFFSET -0.24384 7.07133 1.2192
          CHANNELS 3 Zrotation Xrotation Yrotation
          JOINT leftEye
          {
            OFFSET 4.14528 8.04674 8.04672
            CHANNELS 3 Zrotation Xrotation Yrotation
            End Site
            {
              OFFSET 1 0 0
            }
          }
          JOINT rightEye
          {
            OFFSET -3.6576 8.04674 8.04672
            CHANNELS 3 Zrotation Xrotation Yrotation
            End Site
            {
              OFFSET 1 0 0
            }
          }
        }
      }
      JOINT rCollar
      {
        OFFSET -2.68224 19.2634 -4.8768
        CHANNELS 3 Zrotation Xrotation Yrotation
        JOINT rShldr
        {
          OFFSET -8.77824 -1.95073 1.46304
          CHANNELS 3 Zrotation Xrotation Yrotation
          JOINT rForeArm
          {
            OFFSET -28.1742 -1.7115 0.48768
            CHANNELS 3 Zrotation Xrotation Yrotation
            JOINT rHand
            {
              OFFSET -22.5879 0.773209 7.07136
              CHANNELS 3 Zrotation Xrotation Yrotation
              JOINT rThumb1
              {
                OFFSET -1.2192 -0.487915 3.41376
                CHANNELS 3 Zrotation Xrotation Yrotation
                JOINT rThumb2
                {
                  OFFSET -3.37035 -0.52449 3.41376
                  CHANNELS 3 Zrotation Xrotation Yrotation
                  End Site
                  {
                    OFFSET -1.78271 -1.18214 1.43049
                  }
                }
              }
              JOINT rIndex1
              {
                OFFSET -7.75947 0.938293 5.60832
                CHANNELS 3 Zrotation Xrotation Yrotation
                JOINT rIndex2
                {
                  OFFSET -2.54057 -0.884171 1.56538
                  CHANNELS 3 Zrotation Xrotation Yrotation
                  End Site
                  {
                    OFFSET -1.62519 -0.234802 1.16502
                  }
                }
              }
              JOINT rMid1
              {
                OFFSET -8.24714 1.18213 3.41376
                CHANNELS 3 Zrotation Xrotation Yrotation
                JOINT rMid2
                {
                  OFFSET -3.10165 -0.590103 1.0647
                  CHANNELS 3 Zrotation Xrotation Yrotation
                  End Site
                  {
                    OFFSET -2.48547 -0.328903 0.83742
                  }
                }
              }
              JOINT rRing1
              {
                OFFSET -8.82822 0.546677 1.51678
                CHANNELS 3 Zrotation Xrotation Yrotation
                JOINT rRing2
                {
                  OFFSET -2.60934 -0.819778 -0.0198488
                  CHANNELS 3 Zrotation Xrotation Yrotation
                  End Site
                  {
                    OFFSET -2.33842 -0.294052 0.168128
                  }
                }
              }
              JOINT rPinky1
              {
                OFFSET -8.27202 -0.0477905 -0.4584
                CHANNELS 3 Zrotation Xrotation Yrotation
                JOINT rPinky2
                {
                  OFFSET -1.82734 -0.647385 -0.700984
                  CHANNELS 3 Zrotation Xrotation Yrotation
                  End Site
                  {
                    OFFSET -1.69225 -0.51767 -0.607171
                  }
                }
              }
            }
          }
        }
      }
      JOINT lCollar
      {
        OFFSET 2.68224 19.2634 -4.8768
        CHANNELS 3 Zrotation Xrotation Yrotation
        JOINT lShldr
        {
          OFFSET 8.77824 -1.95073 1.46304
          CHANNELS 3 Zrotation Xrotation Yrotation
          JOINT lForeArm
          {
            OFFSET 28.1742 -1.7115 0.48768
            CHANNELS 3 Zrotation Xrotation Yrotation
            JOINT lHand
            {
              OFFSET 22.5879 0.773209 7.07136
              CHANNELS 3 Zrotation Xrotation Yrotation
              JOINT lThumb1
              {
                OFFSET 1.2192 -0.487915 3.41376
                CHANNELS 3 Zrotation Xrotation Yrotation
                JOINT lThumb2
                {
                  OFFSET 3.37035 -0.52449 3.41376
                  CHANNELS 3 Zrotation Xrotation Yrotation
                  End Site
                  {
                    OFFSET 1.78271 -1.18214 1.43049
                  }
                }
              }
              JOINT lIndex1
              {
                OFFSET 7.75947 0.938293 5.60832
                CHANNELS 3 Zrotation Xrotation Yrotation
                JOINT lIndex2
                {
                  OFFSET 2.54057 -0.884171 1.56538
                  CHANNELS 3 Zrotation Xrotation Yrotation
                  End Site
                  {
                    OFFSET 1.62519 -0.234802 1.16502
                  }
                }
              }
              JOINT lMid1
              {
                OFFSET 8.24714 1.18213 3.41376
                CHANNELS 3 Zrotation Xrotation Yrotation
                JOINT lMid2
                {
                  OFFSET 3.10165 -0.590103 1.0647
                  CHANNELS 3 Zrotation Xrotation Yrotation
                  End Site
                  {
                    OFFSET 2.48547 -0.328903 0.83742
                  }
                }
              }
              JOINT lRing1
              {
                OFFSET 8.82822 0.546677 1.51678
                CHANNELS 3 Zrotation Xrotation Yrotation
                JOINT lRing2
                {
                  OFFSET 2.60934 -0.819778 -0.0198488
                  CHANNELS 3 Zrotation Xrotation Yrotation
                  End Site
                  {
                    OFFSET 2.33842 -0.294052 0.168128
                  }
                }
              }
              JOINT lPinky1
              {
                OFFSET 8.27202 -0.0477905 -0.4584
                CHANNELS 3 Zrotation Xrotation Yrotation
                JOINT lPinky2
                {
                  OFFSET 1.82734 -0.647385 -0.700984
                  CHANNELS 3 Zrotation Xrotation Yrotation
                  End Site
                  {
                    OFFSET 1.69225 -0.51767 -0.607171
                  }
                }
              }
            }
          }
        }
      }
    }
  }
  JOINT rButtock
  {
    OFFSET -8.77824 4.35084 1.2192
    CHANNELS 3 Zrotation Xrotation Yrotation
    JOINT rThigh
    {
      OFFSET 0 -1.70687 -2.19456
      CHANNELS 3 Zrotation Xrotation Yrotation
      JOINT rShin
      {
        OFFSET 0 -36.8199 0.73152
        CHANNELS 3 Zrotation Xrotation Yrotation
        JOINT rFoot
        {
          OFFSET 0.73152 -45.1104 -5.12064
          CHANNELS 3 Zrotation Xrotation Yrotation
          End Site
          {
            OFFSET -1.1221 -3.69964 12.103
          }
        }
      }
    }
  }
  JOINT lButtock
  {
    OFFSET 8.77824 4.35084 1.2192
    CHANNELS 3 Zrotation Xrotation Yrotation
    JOINT lThigh
    {
      OFFSET 0 -1.70687 -2.19456
      CHANNELS 3 Zrotation Xrotation Yrotation
      JOINT lShin
      {
        OFFSET 0 -36.8199 0.73152
        CHANNELS 3 Zrotation Xrotation Yrotation
        JOINT lFoot
        {
          OFFSET -0.73152 -45.1104 -5.12064
          CHANNELS 3 Zrotation Xrotation Yrotation
          End Site
          {
            OFFSET 1.1221 -3.69964 12.103
          }
        }
      }
    }
  }
}
MOTION
Frames:	4
Frame Time:	0.00833333
24.8213 83.7392 14.5657 539.74 43.0978 -172.849 -4.74474 -7.52117 3.91047 7.30877 -7.41701 1.95793 -3.76279 17.9442 4.83038 31.0964 6.35115 14.9277 -0.0 0.0 0.0 -0.0 0.0 0.0 -1.05664e-13 -9.54225e-15 -1.55748e-13 -11.5786 -45.6344 37.3654 -28.4095 -36.8095 78.3724 -0.936713 -26.375 -3.9961 -1.85601e-10 -6.99528e-10 -1.33768e-10 -3.2191e-10 -1.21313e-09 -2.30815e-10 -1.85595e-10 -6.99521e-10 -1.33777e-10 7.73091 5.47488 0.417314 -1.85602e-10 -6.99526e-10 -1.33771e-10 2.90554 0.965183 0.102902 -1.85597e-10 -6.99525e-10 -1.33769e-10 10.2786 0.731801 0.0259123 -1.85604e-10 -6.99522e-10 -1.33771e-10 2.22167 -0.733487 -0.20892 -1.0585e-13 -9.54244e-15 -1.55897e-13 -95.191 52.5739 25.3373 26.5777 -45.0596 -93.5831 0.0620058 7.08739 -1.00123 8.67172e-10 -2.04783e-09 -1.08504e-09 1.49368e-09 -3.54085e-09 -1.88279e-09 8.67172e-10 -2.04783e-09 -1.08501e-09 -7.73091 5.47488 -0.417314 8.67171e-10 -2.04783e-09 -1.08504e-09 -2.90554 0.965183 -0.102902 8.67168e-10 -2.04784e-09 -1.08504e-09 -10.2786 0.731801 -0.0259123 8.67181e-10 -2.04783e-09 -1.08504e-09 -2.22167 -0.733487 0.20892 -2.03217e-16 0.0 -3.88251e-19 8.95641 -29.6282 11.0958 -0.447781 46.2791 0.991641 0.306185 2.00808 23.0408 2.03217e-16 0.0 3.88251e-19 9.76215 -28.7207 -18.7203 0.317104 38.5714 -0.656562 -0.622872 -6.57507 -5.22771
24.0078 83.9151 14.2054 536.548 48.5093 -174.089 -6.65654 -8.19766 4.2885 7.17926 -7.81773 2.14137 -3.58155 17.7743 5.65328 30.1031 6.58892 16.1017 -0.0 0.0 0.0 -0.0 0.0 0.0 -1.2535e-13 -1.89111e-13 -1.97442e-13 -10.8244 -47.1281 37.9109 -28.3485 -37.9593 80.2962 -1.02738 -27.5323 -4.20021 1.93924e-10 -7.46016e-10 -1.77568e-10 3.38254e-10 -1.28991e-09 -2.97226e-10 1.93931e-10 -7.46011e-10 -1.77579e-10 7.73091 5.47488 0.417314 1.93923e-10 -7.46014e-10 -1.77572e-10 2.90554 0.965183 0.102902 1.93928e-10 -7.46014e-10 -1.77568e-10 10.2786 0.731801 0.0259123 1.93921e-10 -7.46011e-10 -1.77569e-10 2.22167 -0.733487 -0.20892 -1.25494e-13 -1.89111e-13 -1.9758e-13 -95.2906 53.1735 25.1992 26.5341 -45.1579 -93.7866 0.0602538 6.9837 -0.986441 -3.17225e-11 -1.06307e-09 4.33946e-11 -5.39361e-11 -1.83389e-09 7.54223e-11 -3.17245e-11 -1.06308e-09 4.34161e-11 -7.73091 5.47488 -0.417314 -3.17238e-11 -1.06308e-09 4.33958e-11 -2.90554 0.965183 -0.102902 -3.17259e-11 -1.06308e-09 4.33951e-11 -10.2786 0.731801 -0.0259123 -3.17144e-11 -1.06308e-09 4.33922e-11 -2.22167 -0.733487 0.20892 -2.03217e-16 0.0 -3.88251e-19 6.29004 -32.1964 9.69096 -0.51023 48.0892 1.02119 0.498584 1.66988 22.0288 2.03217e-16 0.0 3.88251e-19 8.55451 -27.4955 -15.0852 0.292424 37.4422 -0.639351 -0.196656 -7.00623 -2.86074
23.2427 83.9986 13.8412 533.114 53.8137 -175.977 -8.80092 -8.7821 4.44945 7.10348 -8.38104 2.29142 -3.46411 17.6362 6.40319 29.2981 6.76352 17.1552 -0.0 0.0 0.0 -0.0 0.0 0.0 -1.72115e-13 -4.71943e-13 -3.65525e-13 -9.63956 -48.8251 38.6017 -28.2259 -39.1449 82.3242 -1.14148 -28.8654 -4.44212 8.42189e-10 -4.8358e-10 -7.29475e-10 1.47564e-09 -8.29276e-10 -1.23697e-09 8.42196e-10 -4.83578e-10 -7.29489e-10 7.73091 5.47488 0.417314 8.42187e-10 -4.83577e-10 -7.29479e-10 2.90554 0.965183 0.102902 8.42193e-10 -4.83578e-10 -7.29476e-10 10.2786 0.731801 0.0259123 8.42186e-10 -4.83576e-10 -7.29474e-10 2.22167 -0.733487 -0.20892 -1.72182e-13 -4.71943e-13 -3.65658e-13 -95.4452 53.8153 25.053 26.4954 -45.2449 -93.966 0.0592185 6.92395 -0.977918 -1.37681e-09 6.1707e-10 1.96381e-09 -2.36675e-09 1.0697e-09 3.40618e-09 -1.37682e-09 6.17063e-10 1.96383e-09 -7.73091 5.47488 -0.417314 -1.37682e-09 6.17064e-10 1.96382e-09 -2.90554 0.965183 -0.102902 -1.37682e-09 6.17062e-10 1.96382e-09 -10.2786 0.731801 -0.0259123 -1.37681e-09 6.17066e-10 1.96381e-09 -2.22167 -0.733487 0.20892 -2.03217e-16 0.0 -3.88251e-19 2.98959 -35.0628 7.17534 -0.581251 49.9912 1.06162 0.722805 1.13028 20.5673 2.03217e-16 0.0 3.88251e-19 7.19154 -26.4266 -10.953 0.263593 36.085 -0.620804 0.25667 -7.75719 -0.500978
22.5414 84.0155 13.4926 529.269 58.8467 -178.626 -10.8939 -9.228 4.4577 6.98783 -8.98684 2.39441 -3.40023 17.5069 7.07081 28.5989 6.82627 18.0717 -0.0 0.0 0.0 -0.0 0.0 0.0 -2.03377e-13 -6.41354e-13 -5.28931e-13 -8.05024 -50.6594 39.3727 -28.0365 -40.3038 84.401 -1.2723 -30.2716 -4.70497 1.44701e-09 -4.90658e-11 -1.2875e-09 2.53722e-09 -7.07427e-11 -2.18925e-09 1.44701e-09 -4.90675e-11 -1.28752e-09 7.73091 5.47488 0.417314 1.447e-09 -4.90625e-11 -1.28751e-09 2.90554 0.965183 0.102902 1.44701e-09 -4.90637e-11 -1.2875e-09 10.2786 0.731801 0.0259123 1.447e-09 -4.90635e-11 -1.2875e-09 2.22167 -0.733487 -0.20892 -2.03366e-13 -6.41354e-13 -5.29068e-13 -95.6079 54.4586 24.8891 26.4586 -45.3269 -94.1351 0.0585085 6.88463 -0.972305 -2.58758e-09 2.24618e-09 3.80332e-09 -4.44783e-09 3.88296e-09 6.59593e-09 -2.58759e-09 2.24618e-09 3.80332e-09 -7.73091 5.47488 -0.417314 -2.58758e-09 2.24618e-09 3.80332e-09 -2.90554 0.965183 -0.102902 -2.58758e-09 2.24618e-09 3.80332e-09 -10.2786 0.731801 -0.0259123 -2.58758e-09 2.24618e-09 3.80331e-09 -2.22167 -0.733487 0.20892 -2.03217e-16 0.0 -3.88251e-19 -0.728087 -37.924 3.78353 -0.656159 51.8521 1.10981 0.949962 0.406056 18.8894 2.03217e-16 0.0 3.88251e-19 5.76532 -25.3293 -6.79707 0.234941 34.7129 -0.607482 0.734967 -8.64397 1.68754
